<?xml version="1.0" encoding="utf-8"?>
<!-- Generator: Adobe Illustrator 16.0.0, SVG Export Plug-In . SVG Version: 6.00 Build 0)  -->
<!DOCTYPE svg PUBLIC "-//W3C//DTD SVG 1.1//EN" "http://www.w3.org/Graphics/SVG/1.1/DTD/svg11.dtd">
<svg version="1.1" id="Layer_1" xmlns="http://www.w3.org/2000/svg" xmlns:xlink="http://www.w3.org/1999/xlink" x="0px" y="0px"
	 width="15.262px" height="15.262px" viewBox="0.369 0.369 15.262 15.262" enable-background="new 0.369 0.369 15.262 15.262"
	 xml:space="preserve">
<path fill="none" stroke="#32AEFA" stroke-width="0.7" stroke-miterlimit="10" d="M6.635,14.712l-0.006,0.006l-0.145,0.108
	l-0.486,0.365c-0.136,0.102-0.321,0.118-0.478,0.042c-0.157-0.077-0.25-0.234-0.25-0.407V14.22v-0.181v-0.01v-0.113v-1.365H3.904
	H2.539c-1.004,0-1.82-0.816-1.82-1.82V2.539c0-1.004,0.816-1.82,1.82-1.82h10.922c1.005,0,1.82,0.816,1.82,1.82v8.191
	c0,1.004-0.815,1.82-1.82,1.82H9.517L6.635,14.712z"/>
<path fill="#32AEFA" d="M7.813,3.432c-1.781,0-3.225,1.443-3.225,3.225v0.62c0,0.207-0.166,0.372-0.372,0.372
	S3.844,7.483,3.844,7.276v-0.62c0-2.192,1.776-3.969,3.969-3.969s3.969,1.776,3.969,3.969V8.89c0,0.754-0.611,1.364-1.365,1.364
	l-1.474,0.743c-0.128,0.222-0.368,0.372-0.645,0.372H7.802c-0.411,0-0.744-0.333-0.744-0.744s0.333-0.744,0.744-0.744h0.496
	c0.276,0,0.517,0.15,0.645,0.372l1.475-0.743c0.343,0,0.62-0.277,0.62-0.62V6.656C11.037,4.875,9.594,3.432,7.813,3.432z"/>
<path fill="#32AEFA" d="M4.076,5.912h0.248c0.274,0,0.496,0.222,0.496,0.496v1.736c0,0.274-0.222,0.496-0.496,0.496H4.076
	c-0.547,0-0.992-0.444-0.992-0.992V6.904C3.084,6.357,3.529,5.912,4.076,5.912z"/>
<path fill="#32AEFA" d="M11.549,5.912c0.548,0,0.992,0.445,0.992,0.992v0.744c0,0.548-0.444,0.992-0.992,0.992h-0.248
	c-0.274,0-0.496-0.222-0.496-0.496V6.408c0-0.274,0.222-0.496,0.496-0.496H11.549z"/>
</svg>
